<svg aria-hidden="true" style="position: absolute; width: 0; height: 0; overflow: hidden;" version="1.1" xmlns="http://www.w3.org/2000/svg" xmlns:xlink="http://www.w3.org/1999/xlink">
<defs>
<symbol id="menu" viewBox="0 0 32 32">
<path d="M2 6h28v6h-28zM2 14h28v6h-28zM2 22h28v6h-28z"></path>
</symbol>
<symbol id="cross" viewBox="0 0 32 32">
<path d="M31.708 25.708c-0-0-0-0-0-0l-9.708-9.708 9.708-9.708c0-0 0-0 0-0 0.105-0.105 0.18-0.227 0.229-0.357 0.133-0.356 0.057-0.771-0.229-1.057l-4.586-4.586c-0.286-0.286-0.702-0.361-1.057-0.229-0.13 0.048-0.252 0.124-0.357 0.228 0 0-0 0-0 0l-9.708 9.708-9.708-9.708c-0-0-0-0-0-0-0.105-0.104-0.227-0.18-0.357-0.228-0.356-0.133-0.771-0.057-1.057 0.229l-4.586 4.586c-0.286 0.286-0.361 0.702-0.229 1.057 0.049 0.13 0.124 0.252 0.229 0.357 0 0 0 0 0 0l9.708 9.708-9.708 9.708c-0 0-0 0-0 0-0.104 0.105-0.18 0.227-0.229 0.357-0.133 0.355-0.057 0.771 0.229 1.057l4.586 4.586c0.286 0.286 0.702 0.361 1.057 0.229 0.13-0.049 0.252-0.124 0.357-0.229 0-0 0-0 0-0l9.708-9.708 9.708 9.708c0 0 0 0 0 0 0.105 0.105 0.227 0.18 0.357 0.229 0.356 0.133 0.771 0.057 1.057-0.229l4.586-4.586c0.286-0.286 0.362-0.702 0.229-1.057-0.049-0.13-0.124-0.252-0.229-0.357z"></path>
</symbol>
<symbol id="telefone" viewBox="0 0 21 32">
<path   d="M18.133 0h-14.933c-1.764 0-3.2 1.34-3.2 2.987v25.89c0 1.647 1.436 2.987 3.2 2.987h14.933c1.764 0 3.2-1.34 3.2-2.987v-25.89c0-1.647-1.436-2.987-3.2-2.987zM3.2 1.99h14.933c0.589 0 1.067 0.448 1.067 0.996v20.911h-17.067v-20.911c0-0.548 0.478-0.996 1.067-0.996zM18.133 29.873h-14.933c-0.589 0-1.067-0.448-1.067-0.996v-2.987h17.067v2.987c0 0.548-0.478 0.994-1.067 0.994z"></path>
</symbol>
<symbol id="mail" viewBox="0 0 43 32">
<path   d="M38.667 0h-34.667c-2.205 0-4 1.675-4 3.733v22.405c0 2.059 1.795 3.733 4 3.733h34.667c2.205 0 4-1.675 4-3.733v-22.405c0-2.059-1.795-3.733-4-3.733zM38.667 2.488c0.181 0 0.355 0.037 0.512 0.099l-17.845 14.437-17.845-14.437c0.152-0.062 0.327-0.098 0.512-0.099h34.667zM38.667 27.381h-34.667c-0.736 0-1.333-0.557-1.333-1.243v-20.923l17.792 14.395c0.235 0.189 0.537 0.304 0.866 0.304 0.003 0 0.006 0 0.009-0h-0c0.002 0 0.005 0 0.008 0 0.329 0 0.631-0.115 0.869-0.306l-0.003 0.002 17.792-14.395v20.923c0 0.685-0.597 1.243-1.333 1.243z"></path>
</symbol>
<symbol id="circleRight" viewBox="0 0 32 32">
<path d="M16 0c-8.837 0-16 7.163-16 16s7.163 16 16 16 16-7.163 16-16-7.163-16-16-16zM16 29c-7.18 0-13-5.82-13-13s5.82-13 13-13 13 5.82 13 13-5.82 13-13 13z"></path>
<path d="M11.086 22.086l2.829 2.829 8.914-8.914-8.914-8.914-2.828 2.828 6.086 6.086z"></path>
</symbol>
<symbol id="circleLeft" viewBox="0 0 32 32">
<path d="M16 32c8.837 0 16-7.163 16-16s-7.163-16-16-16-16 7.163-16 16 7.163 16 16 16zM16 3c7.18 0 13 5.82 13 13s-5.82 13-13 13-13-5.82-13-13 5.82-13 13-13z"></path>
<path d="M20.914 9.914l-2.829-2.829-8.914 8.914 8.914 8.914 2.828-2.828-6.086-6.086z"></path>
</symbol>
<symbol id="tool_line" viewBox="0 0 32 32">
<path stroke-linejoin="round" stroke-linecap="round" stroke-miterlimit="10" stroke-width="0.625" d="M6.912 12.887c0.081 0.006 0.162 0.025 0.237 0.063 0.112 0.063 0.25 0.044 0.344-0.050l3.069-3.069c0.137-0.137 0.137-0.363 0-0.5-0.169-0.169-0.169-0.444 0-0.613l0.838-0.838c0.169-0.169 0.444-0.169 0.613 0l0.25 0.25 2-2c0.481-0.481 0.481-1.256 0-1.731l-2.662-2.663c-0.481-0.481-1.256-0.481-1.731 0l-2 2 0.206 0.206c0.219 0.219 0.219 0.581 0 0.8l-0.644 0.644c-0.219 0.219-0.581 0.219-0.8 0-0.112-0.112-0.294-0.112-0.406 0l-3.112 3.112c-0.112 0.113-0.112 0.3 0 0.412s0.131 0.294 0.038 0.431c-4.019 5.938-1.169 8.844-1.169 8.844 0.356-2.6 2.55-5.012 4.7-5.3 0.069-0.006 0.156-0.006 0.231 0z"></path>
<path stroke-linejoin="round" stroke-linecap="round" stroke-miterlimit="10" stroke-width="0.625" d="M27.756 25.794l-16.119-14.9-2.925 2.925 14.894 16.119c0.819 0.875 2.2 0.9 3.050 0.050l1.15-1.15c0.85-0.844 0.825-2.225-0.050-3.044z"></path>
<path stroke-linejoin="round" stroke-linecap="round" stroke-miterlimit="10" stroke-width="0.625" d="M6.287 26.719c-0.894 0.894-0.894 2.337 0 3.231v0c0.894 0.894 2.338 0.894 3.231 0l6.412-6.412-3.106-3.356-6.537 6.537z"></path>
<path stroke-linejoin="round" stroke-linecap="round" stroke-miterlimit="10" stroke-width="0.625" d="M30.837 9.463l-3.494 3.494c-0.269 0.269-0.675 0.356-1.031 0.225l-1.956-0.731c-0.262-0.1-0.475-0.306-0.569-0.569l-0.731-1.956c-0.131-0.356-0.044-0.762 0.225-1.031l3.494-3.494c-1.837-0.45-3.856 0.044-5.281 1.487-1.569 1.587-1.981 3.9-1.244 5.869l-2.256 2.256 3.356 3.106 2.125-2.125c1.981 0.75 4.306 0.325 5.9-1.269 1.425-1.431 1.913-3.438 1.462-5.262z"></path>
</symbol>
<symbol id="mobil" viewBox="0 0 32 32">
<path d="M16 2c7.719 0 14 6.281 14 14s-6.281 14-14 14-14-6.281-14-14 6.281-14 14-14zM16 0c-8.836 0-16 7.164-16 16s7.164 16 16 16 16-7.164 16-16-7.164-16-16-16v0zM24.92 21.35l-0.090-0.273c-0.211-0.629-0.906-1.285-1.547-1.461l-2.365-0.646c-0.641-0.174-1.555 0.061-2.025 0.531l-0.855 0.855c-3.109-0.842-5.549-3.281-6.389-6.391l0.855-0.855c0.469-0.469 0.703-1.383 0.529-2.025l-0.645-2.365c-0.174-0.641-0.834-1.336-1.463-1.547l-0.27-0.090c-0.631-0.211-1.531 0.002-2 0.473l-1.281 1.281c-0.229 0.227-0.375 0.877-0.375 0.879-0.043 4.066 1.551 7.982 4.426 10.859 2.867 2.867 6.77 4.459 10.822 4.424 0.021 0 0.691-0.143 0.92-0.371l1.281-1.281c0.469-0.467 0.68-1.367 0.471-1.996z"></path>
</symbol>
<symbol id="like" viewBox="0 0 32 32">
<path fill="#3ebbc4" style="fill: var(--color1, #3ebbc4)" d="M29.375 17.050c0.75-0.5 1.25-1.35 1.25-2.3 0-1.525-1.225-2.75-2.75-2.75h-6c-0.425 0-0.75-0.325-0.75-0.75v-6.75c0-2.2-1.8-4-4-4-0.7 0-1.25 0.55-1.25 1.25v4.675c-0.95 2.825-2.7 5.3-5.050 7.15l-0.775 0.625v-0.675h-8.675v17.975h8.675v-1.5c1.6 0.975 3.425 1.5 5.3 1.5h9.775c1.375 0 2.5-1.125 2.5-2.5 0-0.575-0.2-1.125-0.525-1.525 1.425-0.225 2.525-1.475 2.525-2.975 0-0.875-0.375-1.65-0.95-2.2 1.15-0.425 1.95-1.525 1.95-2.8 0-1-0.5-1.9-1.25-2.45zM9.050 30.5h-6.675v-15.975h6.675v15.975zM27.625 21.5c0 0-0.825 0-1 0v1c1.1 0 2 0.9 2 2s-0.9 2-2 2h-1.5v1c0.825 0 1.5 0.675 1.5 1.5s-0.675 1.5-1.5 1.5h-9.775c-1.9 0-3.75-0.6-5.3-1.7v-13.325l1.4-1.1c2.525-2 4.375-4.65 5.4-7.7l0.025-0.075v-4.85c0-0.15 0.1-0.25 0.25-0.25 1.65 0 3 1.35 3 3v6.75c0 0.975 0.775 1.75 1.75 1.75h6c0.975 0 1.75 0.775 1.75 1.75s-0.775 1.75-1.75 1.75h-0.25v1c1.1 0 2 0.9 2 2s-0.9 2-2 2z"></path>
<path fill="#3ebbc4" style="fill: var(--color1, #3ebbc4)" d="M6.475 28.775c0 0.414-0.336 0.75-0.75 0.75s-0.75-0.336-0.75-0.75c0-0.414 0.336-0.75 0.75-0.75s0.75 0.336 0.75 0.75z"></path>
</symbol>
<symbol id="document" viewBox="0 0 32 32">
<path fill="#3ebbc4" style="fill: var(--color1, #3ebbc4)" d="M9.125 4.5h10v1h-10v-1z"></path>
<path fill="#3ebbc4" style="fill: var(--color1, #3ebbc4)" d="M6.625 9.5h15v1h-15v-1z"></path>
<path fill="#3ebbc4" style="fill: var(--color1, #3ebbc4)" d="M6.625 12h15v1h-15v-1z"></path>
<path fill="#3ebbc4" style="fill: var(--color1, #3ebbc4)" d="M6.625 14.5h15v1h-15v-1z"></path>
<path fill="#3ebbc4" style="fill: var(--color1, #3ebbc4)" d="M6.625 17h15v1h-15v-1z"></path>
<path fill="#3ebbc4" style="fill: var(--color1, #3ebbc4)" d="M6.625 19.5h15v1h-15v-1z"></path>
<path fill="#3ebbc4" style="fill: var(--color1, #3ebbc4)" d="M19.125 22h2.5v1h-2.5v-1z"></path>
<path fill="#3ebbc4" style="fill: var(--color1, #3ebbc4)" d="M5.375 30.875h21.25c2.35 0 4.25-1.9 4.25-4.25v-0.5h-3.75v-26.25h-26v26.75c0 2.35 1.9 4.25 4.25 4.25v-1c-1.8 0-3.25-1.45-3.25-3.25v-25.75h24v25.25h-17.5v0.5c0 1.8-1.45 3.25-3.25 3.25v1zM9.6 27.125h20.25c-0.25 1.55-1.6 2.75-3.2 2.75h-18.55c0.825-0.675 1.375-1.65 1.5-2.75z"></path>
</symbol>
<symbol id="tool" viewBox="0 0 32 32">
<path fill="#3ebbc4" style="fill: var(--color1, #3ebbc4)" d="M0.5 0.5v31h21v-7.25h-13.75v-23.75h-7.25zM6.75 1.5v23.050l-5.25 5.25v-3.3h2v-1h-2v-1.5h2v-1h-2v-1.5h2v-1h-2v-1.5h2v-1h-2v-1.5h2v-1h-2v-1.5h2v-1h-2v-1.5h2v-1h-2v-1.5h2v-1h-2v-1.5h2v-1h-2v-1.5h2v-1h-2v-1.5h5.25zM20.5 30.5h-18.3l5.25-5.25h13.050v5.25z"></path>
</symbol>
<symbol id="facebook" viewBox="0 0 32 32">
<path d="M21.329 5.313h2.921v-5.088c-0.504-0.069-2.237-0.225-4.256-0.225-4.212 0-7.097 2.649-7.097 7.519v4.481h-4.648v5.688h4.648v14.312h5.699v-14.311h4.46l0.708-5.688h-5.169v-3.919c0.001-1.644 0.444-2.769 2.735-2.769z"></path>
</symbol>
<symbol id="instagram" viewBox="0 0 32 32">
<path d="M31.563 16.063c0 2.175-0.044 4.356 0.012 6.531 0.094 3.85-2.325 6.825-5.406 8.15-1.238 0.531-2.538 0.813-3.881 0.813-4.206 0.006-8.419 0.063-12.625-0.019-3.169-0.063-5.775-1.387-7.644-4-0.981-1.375-1.45-2.938-1.45-4.631 0-4.481 0-8.956 0-13.438 0-3.656 1.781-6.213 4.944-7.875 1.375-0.719 2.869-1.025 4.425-1.031 4.081 0 8.169-0.025 12.25 0.012 3.169 0.025 5.813 1.238 7.762 3.787 1.087 1.425 1.613 3.063 1.613 4.862 0 2.275 0 4.556 0 6.838zM2.875 16.063c0 2.294 0 4.581 0 6.875 0 1.025 0.237 1.988 0.769 2.856 1.394 2.281 3.5 3.394 6.112 3.438 4.194 0.063 8.394 0.025 12.594 0.012 1.031 0 2.031-0.212 2.962-0.656 2.538-1.212 3.956-3.144 3.944-6.044-0.025-4.438-0.006-8.875-0.006-13.313 0-1.256-0.356-2.406-1.1-3.419-1.438-1.944-3.425-2.9-5.8-2.925-4.188-0.050-8.375-0.019-12.563-0.013-0.894 0-1.756 0.181-2.594 0.494-2.3 0.856-4.438 3.025-4.338 6.219 0.075 2.162 0.019 4.319 0.019 6.475z"></path>
<path d="M16.1 22.688c-4.031 0-7.281-3.212-7.287-7.213-0.006-3.938 3.269-7.162 7.275-7.162 4.019-0.006 7.281 3.213 7.287 7.181 0 3.963-3.256 7.187-7.275 7.194zM16.1 20.375c2.744 0 4.969-2.194 4.962-4.894-0.006-2.675-2.231-4.863-4.962-4.863-2.744 0-4.981 2.181-4.981 4.875 0.006 2.7 2.238 4.887 4.981 4.881z"></path>
<path d="M24.219 6.125c0.844 0 1.531 0.719 1.531 1.6-0.006 0.881-0.7 1.594-1.544 1.588-0.831-0.006-1.512-0.719-1.512-1.581-0.006-0.881 0.681-1.606 1.525-1.606z"></path>
</symbol>
</defs>
</svg>
